<svg xmlns="http://www.w3.org/2000/svg" aria-hidden="true" viewBox="0 0 32 32"><path fill="#41D1FF" d="M29.884 6.146 16.806 29.66c-.27.484-.962.487-1.235.005L2.045 6.148c-.297-.532.069-1.196.681-1.196h26.4c.62 0 .985.677.658 1.194Z"/><path fill="#FFEA83" d="M22.264 1.31 12.54 3.214a.6.6 0 0 0-.484.564l-.597 10.184a.6.6 0 0 0 .735.621l2.708-.625a.6.6 0 0 1 .721.706l-.804 3.945a.6.6 0 0 0 .76.69l1.672-.508a.6.6 0 0 1 .76.69l-1.278 6.182c-.11.534.598.826.894.37l.198-.31 7.93-15.823a.6.6 0 0 0-.64-.864l-2.787.537a.6.6 0 0 1-.69-.756l1.818-6.302a.6.6 0 0 0-.722-.748Z"/></svg>
